<svg width='32' height='32' viewBox='0 0 32 32' xmlns='http://www.w3.org/2000/svg' xmlns:xlink='http://www.w3.org/1999/xlink'><rect width='32' height='32' stroke='none' fill='#000000' opacity='0'/>


  <g transform="matrix(0.58 0 0 0.58 16 16)" >
    <g style="" >
      <g transform="matrix(1 0 0 1 0 0)" >
        <path style="stroke: none; stroke-width: 1; stroke-dasharray: none; stroke-linecap: butt; stroke-dashoffset: 0; stroke-linejoin: miter; stroke-miterlimit: 4; fill: rgb(33,150,243); fill-rule: nonzero; opacity: 1;" transform=" translate(-24, -24)" d="M 44 24 C 44 35.045 35.045 44 24 44 C 12.954999999999998 44 4 35.045 4 24 C 4 12.954999999999998 12.955 4 24 4 C 35.045 4 44 12.955 44 24 z" stroke-linecap="round" />
      </g>
      <g transform="matrix(1 0 0 1 0 -0.5)" >
        <path style="stroke: none; stroke-width: 1; stroke-dasharray: none; stroke-linecap: butt; stroke-dashoffset: 0; stroke-linejoin: miter; stroke-miterlimit: 4; fill: rgb(255,255,255); fill-rule: nonzero; opacity: 1;" transform=" translate(-24, -23.5)" d="M 22 22 L 26 22 L 26 33 L 22 33 L 22 22 z M 26.5 16.5 C 26.5 17.879 25.379 19 24 19 C 22.621 19 21.5 17.879 21.5 16.5 C 21.5 15.120999999999999 22.621 14 24 14 C 25.379 14 26.5 15.121 26.5 16.5 z" stroke-linecap="round" />
      </g>
    </g>
  </g>
</svg>
